# xmcd
#
# Track frame offsets:
#       150
#       16077
#       30403
#       51972
#       88039
#       106644
#       115955
#       133635
#       164894
#       176420
#       189932
#       208402
#       221545
#       235710
#       253453
#       271968
#       291251
#       305712
#       326147
#
# Disc length: 4529 seconds
#
# Revision: 5
# Processed by: cddbd v1.5.1PL2 Copyright (c) Steve Scherf et al.
# Submitted via: MusiCat 1.1
#
DISCID=1b11af13
DTITLE=Fleetwood Mac - The Original Fleetwood Mac (blue Horizon Boxset Disc 6)
DYEAR=1999
DGENRE=
TTITLE0=Drifting
TTITLE1=Leaving Town Blues
TTITLE2=Watch Out
TTITLE3=A Fool No More (# -incl takes 1-7)
TTITLE4=Mean Old Fireman (# incl take 1)
TTITLE5=Can't Afford to Do it
TTITLE6=Fleetwood Mac
TTITLE7=Worried Dream
TTITLE8=Love That Woman
TTITLE9=Allow Me One More Show
TTITLE10=First Train Home
TTITLE11=Rambling Pony No.2
TTITLE12=Watch Out (take1) (#)
TTITLE13=Something Inside of Me (take 1) (#)
TTITLE14=Something Inside of Me (take 2) (#)
TTITLE15=Something Inside of Me (take 3) (#)
TTITLE16=One Sunny Day (#)
TTITLE17=Without You (#)
TTITLE18=Coming Your Way (#)
EXTD=\n\nOriginal LP released on CBS 1971\nTracks marked '#' are additional tr
EXTD=acks/alternative takes
EXTT0=
EXTT1=
EXTT2=
EXTT3=
EXTT4=\n
EXTT5=
EXTT6=
EXTT7=
EXTT8=
EXTT9=
EXTT10=
EXTT11=
EXTT12=
EXTT13=
EXTT14=
EXTT15=
EXTT16=
EXTT17=
EXTT18=
PLAYORDER=
